<svg width="40" height="40" viewBox="0 0 40 40" fill="none" xmlns="http://www.w3.org/2000/svg">
<path d="M19.4839 29.0959C19.8017 28.9041 20.1996 28.9041 20.5174 29.0959L28.2717 33.776C29.029 34.2331 29.9632 33.5541 29.7622 32.6927L27.7044 23.8718C27.6201 23.5103 27.743 23.1318 28.0235 22.8888L34.8759 16.9525C35.5445 16.3733 35.1871 15.2751 34.3057 15.2003L25.2848 14.435C24.9153 14.4036 24.5934 14.1703 24.4487 13.8288L20.9214 5.50636C20.5768 4.69333 19.4245 4.69333 19.0799 5.50635L15.5526 13.8288C15.4079 14.1703 15.086 14.4036 14.7165 14.435L5.69561 15.2003C4.81419 15.2751 4.45678 16.3733 5.12538 16.9525L11.9778 22.8888C12.2583 23.1318 12.3812 23.5103 12.2969 23.8718L10.2391 32.6927C10.0381 33.5541 10.9723 34.2331 11.7297 33.776L19.4839 29.0959Z" fill="#F8A401"/>
</svg>
