<svg width="40" height="40" viewBox="0 0 40 40" fill="none" xmlns="http://www.w3.org/2000/svg">
<path d="M34.883 16.9492C35.5503 16.3701 35.1937 15.2736 34.3135 15.1977L25.2835 14.419C24.9146 14.3872 24.5935 14.1542 24.4489 13.8134L20.9219 5.50421C20.5769 4.69161 19.4251 4.69193 19.0806 5.50471L15.5526 13.8288C15.4079 14.1703 15.086 14.4036 14.7165 14.435L5.69561 15.2003C4.81419 15.2751 4.45678 16.3733 5.12538 16.9525L11.9778 22.8888C12.2583 23.1318 12.3812 23.5103 12.2969 23.8718L10.2391 32.6927C10.0381 33.5541 10.9723 34.2331 11.7297 33.776L19.4839 29.0959C19.8017 28.9041 20.1996 28.9041 20.5174 29.0959L28.2755 33.7783C29.0322 34.2351 29.966 33.5574 29.7664 32.6963L27.72 23.8705C27.6363 23.5097 27.7589 23.1321 28.0387 22.8894L34.883 16.9492ZM20.5177 25.98C20.1998 25.7877 19.8014 25.7876 19.4834 25.9796L15.7641 28.225C15.0067 28.6823 14.0722 28.003 14.2735 27.1414L15.2634 22.9049C15.3478 22.5435 15.2252 22.1651 14.9449 21.9219L11.6513 19.0648C10.984 18.486 11.3401 17.3895 12.2201 17.3132L16.5667 16.9361C16.9361 16.904 17.2575 16.6702 17.4016 16.3285L19.0808 12.3478C19.4244 11.5333 20.5785 11.5326 20.9231 12.3467L22.616 16.3462C22.7604 16.6873 23.0814 16.9207 23.4505 16.9527L27.7979 17.3299C28.6779 17.4062 29.034 18.5027 28.3667 19.0815L25.0731 21.9386C24.7928 22.1818 24.6702 22.5602 24.7546 22.9215L25.7439 27.1556C25.9452 28.0175 25.01 28.6968 24.2526 28.2388L20.5177 25.98Z" fill="#F8A401"/>
</svg>
